<?xml version="1.0" standalone="no"?>
<!DOCTYPE svg PUBLIC "-//W3C//DTD SVG 20010904//EN"
 "http://www.w3.org/TR/2001/REC-SVG-20010904/DTD/svg10.dtd">
<svg version="1.0" xmlns="http://www.w3.org/2000/svg"
 width="300.000000pt" height="288.000000pt" viewBox="0 0 300.000000 288.000000"
 preserveAspectRatio="xMidYMid meet">
<metadata>
Created by potrace 1.10, written by Peter Selinger 2001-2011
</metadata>
<g transform="translate(0.000000,288.000000) scale(0.100000,-0.100000)"
fill="#000000" stroke="none">
<path d="M1245 2391 c-70 -17 -88 -37 -100 -111 -9 -56 -27 -85 -68 -110 -41
-26 -68 -25 -144 2 l-62 22 -36 -29 c-20 -17 -44 -42 -53 -58 -16 -26 -16 -31
5 -90 14 -39 20 -73 16 -92 -6 -28 -2 -26 73 39 247 212 575 245 849 84 80
-47 195 -158 245 -235 l33 -53 246 0 c135 0 298 -3 361 -6 80 -5 112 -3 105 4
-10 11 -114 24 -325 42 -150 13 -181 22 -215 61 -20 24 -25 41 -25 82 1 29 7
63 15 77 21 37 18 69 -11 107 -47 61 -60 65 -142 42 -59 -16 -78 -18 -111 -9
-55 15 -90 62 -100 135 -4 31 -13 61 -19 67 -5 5 -38 17 -72 25 l-63 14 -48
-54 c-82 -92 -164 -93 -244 -3 -44 48 -65 57 -110 47z m98 -80 c58 -54 98 -68
172 -57 35 6 57 18 99 57 51 46 58 50 91 43 42 -8 60 -32 70 -91 9 -55 63
-119 116 -134 30 -9 51 -9 92 0 100 22 98 22 129 -10 32 -31 33 -43 11 -129
-14 -53 2 -119 37 -155 17 -17 30 -34 30 -38 0 -11 -139 -8 -161 4 -11 5 -29
24 -39 41 -34 57 -163 179 -238 225 -161 100 -368 138 -545 98 -43 -9 -80 -15
-82 -13 -3 2 6 19 20 38 13 18 27 51 30 74 8 48 23 72 56 85 43 17 59 12 112
-38z m-385 -181 c20 -6 44 -14 52 -16 9 -3 -13 -22 -58 -50 -40 -25 -72 -50
-72 -54 0 -5 -9 -14 -20 -20 -16 -9 -22 -6 -35 19 -23 45 -19 79 15 112 31 31
42 32 118 9z" fill="#1E90FF" style="background: red"/>
<path d="M1215 2095 c-148 -33 -253 -91 -358 -196 l-77 -78 -108 -11 c-59 -5
-177 -17 -263 -25 -86 -8 -165 -15 -175 -15 -9 0 -14 -3 -10 -7 4 -5 170 -7
369 -5 l362 4 19 26 c68 93 216 188 337 217 75 17 206 19 281 4 78 -16 193
-75 254 -132 69 -63 70 -44 1 25 -165 166 -414 242 -632 193z m194 -25 c10 -5
-6 -12 -45 -20 -161 -33 -258 -83 -359 -183 -69 -70 -71 -70 -132 -75 -35 -2
-63 0 -63 5 0 5 28 38 63 74 65 69 185 147 267 174 79 26 240 41 269 25z"/>
<path d="M475 1629 c-67 -21 -95 -64 -95 -144 0 -65 22 -115 59 -134 37 -20
105 -24 141 -9 30 13 35 20 37 51 3 43 0 44 -34 17 -66 -52 -144 7 -127 96 7
36 45 74 73 74 9 0 31 -9 49 -20 18 -11 35 -20 37 -20 3 0 5 16 5 35 0 23 -6
37 -19 44 -29 16 -93 21 -126 10z m-30 -79 c-26 -50 -17 -127 20 -163 24 -24
3 -21 -23 3 -12 11 -25 32 -28 46 -9 34 1 111 16 129 21 26 31 16 15 -15z"/>
<path d="M1825 1633 c-65 -12 -65 -12 -65 -48 0 -19 2 -35 3 -35 2 0 19 7 36
16 26 13 38 14 57 5 43 -19 32 -56 -41 -127 -37 -37 -65 -72 -65 -84 0 -19 7
-20 110 -20 l110 0 0 30 0 31 -52 -7 c-29 -4 -57 -13 -63 -20 -5 -7 -19 -12
-30 -9 -11 2 -24 4 -29 4 -12 1 34 51 46 51 5 0 6 -5 2 -11 -3 -6 7 -4 24 5
33 17 65 57 82 101 13 34 -3 91 -28 104 -23 11 -73 19 -97 14z m95 -58 c13
-16 -4 -95 -21 -95 -6 0 -7 5 -3 11 12 20 6 70 -11 89 -16 18 -16 18 4 13 11
-3 25 -11 31 -18z"/>
<path d="M2063 1629 c-18 -5 -40 -20 -48 -32 -21 -32 -30 -133 -16 -183 16
-59 42 -79 106 -79 66 0 89 19 105 87 23 94 -5 187 -61 207 -37 13 -42 13 -86
0z m-7 -62 c-23 -34 -23 -139 -1 -173 9 -15 12 -23 6 -20 -41 26 -52 162 -16
203 24 29 31 22 11 -10z m120 -10 c20 -61 7 -170 -21 -181 -13 -5 -13 -2 0 24
21 41 20 148 -2 172 -15 17 -15 18 0 13 9 -4 19 -17 23 -28z m-46 4 c15 -29
12 -134 -4 -157 -12 -15 -18 -17 -33 -8 -14 9 -19 26 -21 83 -3 73 6 101 34
101 7 0 18 -9 24 -19z"/>
<path d="M2325 1634 c-11 -3 -30 -7 -42 -10 -19 -3 -23 -11 -23 -40 0 -31 3
-35 18 -29 66 28 70 29 86 16 33 -27 19 -65 -45 -126 -33 -32 -63 -68 -65 -81
-4 -22 -2 -23 106 -26 l110 -3 0 33 0 33 -52 -7 c-29 -4 -55 -10 -58 -14 -6
-9 -26 -13 -55 -11 -18 1 -17 3 8 29 20 20 30 24 35 14 12 -19 88 51 102 93
15 44 5 92 -23 109 -26 17 -74 26 -102 20z m84 -48 c16 -19 21 -50 10 -67 -7
-11 -9 -9 -9 7 0 11 -7 29 -15 40 -24 32 -11 51 14 20z"/>
<path d="M180 1601 c0 -24 3 -28 23 -24 22 4 22 3 22 -91 0 -93 -1 -96 -22
-96 -18 0 -23 -6 -23 -25 0 -25 1 -25 80 -25 79 0 80 0 80 25 0 18 -5 25 -20
25 -19 0 -20 7 -20 95 0 88 1 95 20 95 15 0 20 7 20 25 0 25 -1 25 -80 25
l-80 0 0 -29z m100 -20 c-13 -25 -13 -151 -1 -184 8 -20 6 -27 -5 -31 -25 -9
-36 4 -29 33 11 41 6 173 -6 188 -9 10 -5 13 20 13 28 0 31 -2 21 -19z"/>
<path d="M715 1618 c-3 -7 -25 -73 -49 -145 l-43 -133 39 0 c35 0 39 3 45 30
5 28 8 30 53 30 45 0 48 -2 54 -30 5 -27 9 -30 47 -30 28 0 39 4 36 13 -3 6
-25 72 -49 144 l-43 133 -43 0 c-25 0 -45 -5 -47 -12z m97 -101 c14 -42 30
-92 33 -110 l7 -32 -33 32 c-24 24 -30 35 -22 45 16 20 12 46 -10 65 -19 18
-20 17 -14 -9 4 -14 10 -33 13 -42 5 -13 -1 -16 -26 -16 -25 0 -30 3 -26 18 2
9 7 27 11 40 7 24 -4 29 -24 10 -10 -11 -10 -8 -2 15 6 15 8 27 5 27 -2 0 0 9
6 21 7 13 19 19 33 17 17 -2 27 -19 49 -81z m-99 -36 c-2 -10 2 -24 9 -32 12
-10 8 -18 -21 -45 -20 -18 -37 -31 -39 -29 -4 4 46 125 53 125 2 0 1 -8 -2
-19z"/>
<path d="M930 1485 l0 -145 41 0 42 0 -6 60 -7 60 60 0 c60 0 60 0 60 30 0 30
0 30 -60 30 -57 0 -60 1 -60 25 0 24 2 25 65 25 l65 0 0 30 0 30 -100 0 -100
0 0 -145z m65 106 c3 -5 1 -12 -5 -16 -15 -10 -12 -46 7 -67 15 -17 15 -19 0
-36 -10 -10 -17 -29 -17 -43 0 -13 -5 -31 -10 -39 -7 -10 -10 19 -10 91 0 58
3 109 7 112 9 10 21 9 28 -2z"/>
<path d="M1160 1486 l0 -144 40 -4 40 -4 0 66 0 65 55 -3 55 -4 0 31 c0 31 0
31 -55 31 -52 0 -55 1 -55 25 l0 25 106 0 106 0 -4 -115 -3 -115 38 0 37 0 0
115 0 115 45 0 c43 0 45 1 45 30 l0 30 -225 0 -225 0 0 -144z m80 107 c0 -3
-7 -14 -15 -23 -13 -14 -12 -19 1 -45 13 -25 13 -32 -1 -61 -8 -18 -15 -44
-15 -58 0 -14 -4 -26 -9 -26 -15 0 -14 202 1 211 16 10 38 12 38 2z m265 -23
c-8 -16 -15 -32 -15 -35 2 -57 -1 -157 -6 -153 -3 3 -7 45 -9 93 -2 49 -9 93
-14 98 -19 19 -12 27 24 27 l36 0 -16 -30z"/>
<path d="M2560 1549 c-34 -46 -60 -91 -60 -105 0 -13 -1 -27 -2 -31 -2 -4 26
-8 61 -8 l65 0 0 -34 c1 -33 3 -35 36 -35 33 1 35 2 35 35 0 29 3 34 23 32 18
-2 22 2 22 27 0 24 -4 30 -22 30 -22 0 -23 2 -19 85 l3 85 -41 0 c-40 0 -43
-3 -101 -81z m111 -19 c3 -36 9 -73 14 -83 7 -18 -11 -67 -25 -67 -3 0 -13 12
-22 28 -14 24 -14 30 -2 46 16 23 19 72 4 81 -10 6 -14 -20 -11 -57 2 -12 -5
-18 -18 -18 -10 0 -26 -3 -35 -6 -24 -9 -19 13 10 51 14 19 27 40 28 47 7 32
20 49 35 46 12 -2 17 -19 22 -68z"/>
<path d="M205 1200 c3 -5 23 -10 44 -10 82 0 444 -41 475 -54 73 -31 101 -105
67 -181 -31 -69 -27 -86 27 -139 52 -51 60 -53 102 -31 16 9 49 18 73 21 80
11 135 -39 158 -144 14 -66 26 -78 96 -92 l58 -12 32 37 c21 25 34 53 39 83 8
55 -2 190 -16 207 -6 7 -42 23 -81 35 -39 13 -96 40 -127 60 -63 40 -151 131
-185 191 l-22 39 -373 0 c-246 0 -371 -3 -367 -10z m763 -89 c72 -102 166
-173 287 -216 83 -30 85 -34 85 -147 0 -92 -2 -101 -25 -123 -27 -28 -46 -30
-88 -12 -22 10 -33 26 -51 80 -39 117 -105 161 -208 138 -29 -7 -62 -14 -73
-17 -13 -3 -31 5 -54 26 -36 33 -36 42 -12 138 15 57 0 110 -41 151 -23 22
-27 32 -17 35 23 8 71 11 116 8 38 -4 45 -9 81 -61z"/>
<path d="M1700 1199 c-25 -4 -72 -17 -104 -28 -81 -29 -164 -27 -256 4 -83 28
-161 33 -180 10 -33 -40 29 -119 138 -174 68 -34 107 -75 122 -129 5 -20 10
-91 10 -157 0 -128 -2 -137 -63 -223 -37 -52 -44 -99 -22 -146 49 -104 209
-106 256 -3 31 69 22 107 -45 190 -31 38 -31 41 -34 167 -2 77 1 144 8 171 15
53 63 102 144 144 153 79 171 198 26 174z m70 -49 c0 -21 -55 -71 -114 -104
-74 -41 -123 -87 -143 -136 -21 -48 -29 -234 -14 -297 7 -26 30 -75 52 -109
40 -62 48 -99 27 -137 -25 -47 -63 -67 -118 -61 -48 6 -76 28 -90 69 -15 46
-7 78 35 135 47 64 56 107 51 245 -5 174 -28 215 -157 288 -70 39 -105 71
-111 102 -5 30 57 31 145 4 94 -30 198 -30 287 -1 36 11 76 23 90 24 27 4 60
-8 60 -22z"/>
<path d="M1971 1153 c-76 -111 -172 -187 -289 -229 -42 -15 -82 -32 -89 -38
-14 -14 -22 -166 -11 -225 8 -46 37 -86 69 -96 28 -9 99 14 125 40 15 15 24
36 24 55 0 70 69 150 130 150 14 0 51 -9 82 -20 71 -25 95 -17 138 42 34 46
34 59 6 137 -14 36 -15 50 -5 80 28 88 69 102 364 126 116 10 217 21 225 26 8
5 -149 9 -357 9 l-372 0 -40 -57z m202 -15 c-17 -18 -35 -42 -41 -54 -16 -30
-16 -102 -1 -156 12 -45 12 -48 -15 -82 -31 -41 -37 -42 -112 -20 -115 33
-194 -11 -229 -129 -18 -62 -23 -71 -52 -86 -33 -17 -68 -13 -89 10 -15 17
-20 40 -22 121 -4 114 2 127 71 148 102 30 212 109 284 203 26 34 52 65 58 69
5 4 48 8 94 8 l85 0 -31 -32z"/>
</g>
</svg>
