<svg xmlns="http://www.w3.org/2000/svg" width="346" height="332" viewBox="0 0 346 332" version="1.1"><path d="M 140.276 57.326 C 135.129 59.200, 133.057 62.006, 131.993 68.542 C 130.921 75.131, 128.954 78.385, 124.010 81.750 C 119.932 84.526, 116.024 84.589, 108.500 82 C 105.303 80.900, 101.793 80, 100.701 80 C 97.817 80, 89 89.150, 89 92.142 C 89 93.477, 89.934 97.227, 91.076 100.475 C 92.442 104.362, 92.939 107.511, 92.530 109.690 C 92.189 111.511, 92.196 113, 92.547 113 C 92.898 113, 95.956 110.480, 99.343 107.399 C 107.674 99.821, 112.661 96.487, 122.323 92.037 C 134.626 86.371, 142.507 84.673, 156.500 84.673 C 174.540 84.673, 187.642 88.617, 202.500 98.519 C 211.979 104.837, 219.202 111.970, 226.372 122.098 L 231.613 129.500 271.806 129.761 C 294.137 129.907, 312 129.636, 312 129.153 C 312 128.243, 303.609 127.150, 276 124.464 C 265.575 123.450, 258.216 122.241, 256.013 121.180 C 248.326 117.477, 246.020 108.713, 249.986 98.277 C 252.412 91.895, 251.866 90.133, 245.575 84.025 L 240.967 79.551 232.136 81.855 C 224.809 83.767, 222.628 83.977, 219.337 83.091 C 212.820 81.336, 209 75.740, 207.579 65.865 C 206.808 60.509, 205.074 58.629, 199.500 57.105 C 191.835 55.009, 189.603 55.558, 185.517 60.545 C 181.088 65.950, 178.281 67.922, 173.473 69.006 C 167.594 70.332, 163.120 68.428, 156.763 61.896 C 151.704 56.697, 150.581 56.009, 147.263 56.076 C 145.193 56.118, 142.049 56.680, 140.276 57.326 M 138.500 90.656 C 123.048 93.951, 108.593 102.293, 97.206 114.486 L 90.269 121.914 59.936 124.957 C 43.253 126.631, 28.680 128.014, 27.552 128.030 C 25.595 128.059, 25.586 128.111, 27.368 129.146 C 28.656 129.895, 41.545 130.111, 68.942 129.845 L 108.649 129.460 117.107 120.980 C 126.694 111.368, 134.902 106.147, 146.500 102.284 C 153.566 99.930, 156.076 99.617, 168 99.600 C 176.038 99.588, 183.321 100.100, 186 100.863 C 194.127 103.180, 206.395 109.731, 212.308 114.912 C 215.503 117.710, 218.353 120, 218.642 120 C 220.120 120, 211.892 111.201, 206.111 106.600 C 197.952 100.106, 194.278 97.904, 186.102 94.603 C 172.385 89.065, 153.357 87.487, 138.500 90.656 M 21 147 C 21 149.533, 21.389 150, 23.500 150 L 26 150 26 161 L 26 172 23.500 172 C 21.389 172, 21 172.467, 21 175 L 21 178 30 178 L 39 178 39 175 C 39 172.456, 38.615 172, 36.466 172 L 33.932 172 34.216 161.250 C 34.488 150.962, 34.597 150.486, 36.750 150.180 C 38.499 149.932, 39 149.208, 39 146.930 L 39 144 30 144 L 21 144 21 147 M 50.898 146.270 C 46.185 149.418, 44.003 154.241, 44.005 161.500 C 44.008 168.505, 46.223 172.946, 51.241 176.005 C 54.922 178.250, 62.770 178.673, 67.851 176.902 C 70.657 175.924, 71 175.380, 71 171.902 C 71 167.794, 70.055 167.024, 68.022 169.474 C 66.514 171.291, 60.921 172.427, 58.018 171.506 C 55.061 170.567, 52.007 165.230, 52.007 161 C 52.007 156.770, 55.061 151.433, 58.018 150.494 C 60.921 149.573, 66.514 150.709, 68.022 152.526 C 70.048 154.967, 71 154.210, 71 150.161 C 71 145.394, 68.534 144, 60.101 144 C 55.730 144, 53.456 144.561, 50.898 146.270 M 77.953 159.699 C 75.067 168.390, 72.488 176.091, 72.221 176.814 C 71.858 177.800, 72.823 178.049, 76.086 177.814 C 80.034 177.529, 80.521 177.200, 81.363 174.250 C 82.258 171.111, 82.469 171, 87.567 171 C 92.712 171, 92.874 171.088, 94 174.500 C 95.059 177.709, 95.481 178, 99.078 178 C 101.576 178, 102.982 177.546, 102.949 176.750 C 102.922 176.063, 100.511 168.525, 97.593 160 L 92.288 144.500 87.744 144.199 L 83.200 143.899 77.953 159.699 M 108 161 L 108 178 112 178 L 116 178 116 170.500 L 116 163 122.500 163 L 129 163 129 160 L 129 157 122.500 157 L 116 157 116 154.046 C 116 151.094, 116.007 151.091, 122.750 150.796 L 129.500 150.500 129.813 147.250 L 130.127 144 119.063 144 L 108 144 108 161 M 135 161 L 135 178 139 178 L 143 178 143 170.500 L 143 163 149.500 163 L 156 163 156 160 L 156 157 149.500 157 L 143 157 143 154.082 C 143 151.179, 143.035 151.162, 149.750 150.832 C 153.463 150.649, 158.863 150.636, 161.750 150.802 L 167 151.105 167 164.552 L 167 178 171 178 L 175 178 175 164.500 L 175 151 180 151 L 185 151 185 147.500 L 185 144 160 144 L 135 144 135 161 M 205.250 145.031 C 203.512 145.730, 203 146.739, 203 149.468 C 203 153.535, 202.877 153.466, 206.636 151.506 C 210.334 149.577, 213.458 149.600, 215.429 151.571 C 218.632 154.775, 216.646 159.208, 208.597 166.820 C 204.268 170.914, 203 172.780, 203 175.057 L 203 178 215 178 L 227 178 227 175 L 227 172 220.500 172 C 216.925 172, 214 171.590, 214 171.089 C 214 170.588, 215.336 169.054, 216.968 167.680 C 221.997 163.448, 225.003 158.162, 224.968 153.610 C 224.915 146.757, 221.356 143.962, 212.816 144.063 C 209.892 144.098, 206.488 144.534, 205.250 145.031 M 236.308 145.010 C 232.903 146.381, 230.866 150.383, 230.279 156.859 C 229.543 164.975, 230.689 171.527, 233.395 174.672 C 235.200 176.772, 236.785 177.401, 241.187 177.766 C 251.215 178.597, 254.990 174.210, 254.996 161.718 C 255.002 148.939, 251.616 143.943, 243.027 144.063 C 240.537 144.098, 237.514 144.524, 236.308 145.010 M 263.250 145.031 C 261.512 145.730, 261 146.739, 261 149.468 C 261 153.535, 260.877 153.466, 264.636 151.506 C 268.334 149.577, 271.458 149.600, 273.429 151.571 C 276.632 154.775, 274.646 159.208, 266.597 166.820 C 262.268 170.914, 261 172.780, 261 175.057 L 261 178 273 178 L 285 178 285 175 L 285 172 278.500 172 C 274.925 172, 272 171.590, 272 171.089 C 272 170.588, 273.336 169.054, 274.968 167.680 C 279.997 163.448, 283.003 158.162, 282.968 153.610 C 282.915 146.757, 279.356 143.962, 270.816 144.063 C 267.892 144.098, 264.488 144.534, 263.250 145.031 M 295.250 153.900 C 289.882 161.178, 288 164.544, 288 166.865 L 288 170 295.500 170 L 303 170 303 174 L 303 178 307 178 L 311 178 311 174 C 311 170.667, 311.333 170, 313 170 C 314.556 170, 315 169.333, 315 167 C 315 164.667, 314.556 164, 313 164 C 311.133 164, 311 163.333, 311 154 L 311 144 306.750 144.035 C 302.541 144.070, 302.430 144.166, 295.250 153.900 M 239.098 153.149 C 237.627 157.368, 237.731 165.910, 239.290 168.991 C 240.863 172.101, 243.949 172.790, 245.684 170.418 C 247.271 168.247, 247.476 154.758, 245.965 151.934 C 244.271 148.769, 240.385 149.457, 239.098 153.149 M 298.193 158.529 C 296.437 161.020, 295 163.270, 295 163.529 C 295 163.788, 296.800 164, 299 164 L 303 164 303 159 C 303 156.250, 302.637 154, 302.193 154 C 301.748 154, 299.948 156.038, 298.193 158.529 M 86.097 158.150 C 84.206 163.576, 84.624 165, 88.107 165 C 90.657 165, 91.093 164.686, 90.537 163.250 C 90.165 162.287, 89.608 160.253, 89.301 158.729 C 88.496 154.742, 87.357 154.536, 86.097 158.150 M 24.124 193.457 C 24.376 193.709, 36.020 195.078, 50 196.500 C 78.446 199.393, 83.086 200.213, 87.070 203.050 C 92.752 207.095, 94.273 216.704, 90.414 224.166 C 87.612 229.586, 88.516 232.932, 94.205 238.190 C 97.068 240.835, 100.105 243, 100.955 242.999 C 101.805 242.999, 104.975 242.055, 108 240.902 C 121.086 235.913, 129.280 241.092, 132.944 256.667 C 134.350 262.644, 135.960 264.380, 141.500 265.895 C 148.422 267.788, 150.463 267.337, 154.327 263.060 C 158.673 258.249, 159.401 254.777, 158.778 241.831 C 158.209 230.026, 157.543 229.028, 148.326 226.171 C 134.331 221.833, 122.099 212.470, 113.154 199.250 L 108.925 193 66.296 193 C 42.850 193, 23.872 193.206, 24.124 193.457 M 137.248 193.806 C 131.662 194.634, 132.418 202.526, 138.604 207.957 C 140.520 209.639, 144.780 212.375, 148.073 214.037 C 151.365 215.699, 155.811 218.641, 157.951 220.575 C 163.787 225.847, 165.004 230.586, 164.978 247.928 C 164.954 264.031, 164.191 266.852, 157.868 274.240 C 153.466 279.383, 152.738 286.920, 156.161 291.908 C 162.569 301.244, 173.843 302.824, 181.244 295.422 C 187.749 288.918, 187.970 280.962, 181.856 273.370 C 175.953 266.040, 175.046 262.781, 175.022 248.799 C 174.983 226.551, 176.823 222.891, 192.631 213.773 C 204.669 206.830, 209.369 200.291, 206.069 195.078 C 204.658 192.848, 196.151 193.533, 186.795 196.629 C 175.813 200.263, 165.586 200.400, 155 197.054 C 146.616 194.405, 140.613 193.306, 137.248 193.806 M 227.058 199.411 C 219.154 211.542, 207.146 220.908, 193.500 225.583 C 181.639 229.647, 182 229.066, 182 244.090 C 182 258.212, 182.451 260.188, 186.629 264.360 C 189.195 266.922, 189.982 267.162, 194.193 266.664 C 202.874 265.635, 208 260.931, 208 253.992 C 208 251.146, 211.285 244.986, 214.304 242.168 C 217.967 238.750, 223.499 238.369, 231.866 240.958 C 235.762 242.164, 239.845 242.867, 240.939 242.519 C 242.033 242.172, 244.745 239.825, 246.964 237.303 C 251.262 232.420, 252.182 228.077, 249.844 223.708 C 244.669 214.039, 249.287 202.980, 259.723 200.048 C 261.800 199.464, 271.150 198.319, 280.500 197.504 C 299.759 195.824, 316 193.936, 316 193.377 C 316 193.169, 296.928 193, 273.617 193 L 231.235 193 227.058 199.411" stroke="none" fill="#364e85" fill-rule="evenodd"/><path d="M 0 166.003 L 0 332.006 173.250 331.753 L 346.500 331.500 346.753 165.750 L 347.006 0 173.503 0 L 0 0 0 166.003 M 0.488 166.500 C 0.488 257.800, 0.606 295.298, 0.750 249.829 C 0.894 204.360, 0.894 129.660, 0.750 83.829 C 0.606 37.998, 0.488 75.200, 0.488 166.500 M 140.276 57.326 C 135.129 59.200, 133.057 62.006, 131.993 68.542 C 130.921 75.131, 128.954 78.385, 124.010 81.750 C 119.932 84.526, 116.024 84.589, 108.500 82 C 105.303 80.900, 101.793 80, 100.701 80 C 97.817 80, 89 89.150, 89 92.142 C 89 93.477, 89.934 97.227, 91.076 100.475 C 92.442 104.362, 92.939 107.511, 92.530 109.690 C 92.189 111.511, 92.196 113, 92.547 113 C 92.898 113, 95.956 110.480, 99.343 107.399 C 107.674 99.821, 112.661 96.487, 122.323 92.037 C 134.626 86.371, 142.507 84.673, 156.500 84.673 C 174.540 84.673, 187.642 88.617, 202.500 98.519 C 211.979 104.837, 219.202 111.970, 226.372 122.098 L 231.613 129.500 271.806 129.761 C 294.137 129.907, 312 129.636, 312 129.153 C 312 128.243, 303.609 127.150, 276 124.464 C 265.575 123.450, 258.216 122.241, 256.013 121.180 C 248.326 117.477, 246.020 108.713, 249.986 98.277 C 252.412 91.895, 251.866 90.133, 245.575 84.025 L 240.967 79.551 232.136 81.855 C 224.809 83.767, 222.628 83.977, 219.337 83.091 C 212.820 81.336, 209 75.740, 207.579 65.865 C 206.808 60.509, 205.074 58.629, 199.500 57.105 C 191.835 55.009, 189.603 55.558, 185.517 60.545 C 181.088 65.950, 178.281 67.922, 173.473 69.006 C 167.594 70.332, 163.120 68.428, 156.763 61.896 C 151.704 56.697, 150.581 56.009, 147.263 56.076 C 145.193 56.118, 142.049 56.680, 140.276 57.326 M 138.500 90.656 C 123.048 93.951, 108.593 102.293, 97.206 114.486 L 90.269 121.914 59.936 124.957 C 43.253 126.631, 28.680 128.014, 27.552 128.030 C 25.595 128.059, 25.586 128.111, 27.368 129.146 C 28.656 129.895, 41.545 130.111, 68.942 129.845 L 108.649 129.460 117.107 120.980 C 126.694 111.368, 134.902 106.147, 146.500 102.284 C 153.566 99.930, 156.076 99.617, 168 99.600 C 176.038 99.588, 183.321 100.100, 186 100.863 C 194.127 103.180, 206.395 109.731, 212.308 114.912 C 215.503 117.710, 218.353 120, 218.642 120 C 220.120 120, 211.892 111.201, 206.111 106.600 C 197.952 100.106, 194.278 97.904, 186.102 94.603 C 172.385 89.065, 153.357 87.487, 138.500 90.656 M 21 147 C 21 149.533, 21.389 150, 23.500 150 L 26 150 26 161 L 26 172 23.500 172 C 21.389 172, 21 172.467, 21 175 L 21 178 30 178 L 39 178 39 175 C 39 172.456, 38.615 172, 36.466 172 L 33.932 172 34.216 161.250 C 34.488 150.962, 34.597 150.486, 36.750 150.180 C 38.499 149.932, 39 149.208, 39 146.930 L 39 144 30 144 L 21 144 21 147 M 50.898 146.270 C 46.185 149.418, 44.003 154.241, 44.005 161.500 C 44.008 168.505, 46.223 172.946, 51.241 176.005 C 54.922 178.250, 62.770 178.673, 67.851 176.902 C 70.657 175.924, 71 175.380, 71 171.902 C 71 167.794, 70.055 167.024, 68.022 169.474 C 66.514 171.291, 60.921 172.427, 58.018 171.506 C 55.061 170.567, 52.007 165.230, 52.007 161 C 52.007 156.770, 55.061 151.433, 58.018 150.494 C 60.921 149.573, 66.514 150.709, 68.022 152.526 C 70.048 154.967, 71 154.210, 71 150.161 C 71 145.394, 68.534 144, 60.101 144 C 55.730 144, 53.456 144.561, 50.898 146.270 M 77.953 159.699 C 75.067 168.390, 72.488 176.091, 72.221 176.814 C 71.858 177.800, 72.823 178.049, 76.086 177.814 C 80.034 177.529, 80.521 177.200, 81.363 174.250 C 82.258 171.111, 82.469 171, 87.567 171 C 92.712 171, 92.874 171.088, 94 174.500 C 95.059 177.709, 95.481 178, 99.078 178 C 101.576 178, 102.982 177.546, 102.949 176.750 C 102.922 176.063, 100.511 168.525, 97.593 160 L 92.288 144.500 87.744 144.199 L 83.200 143.899 77.953 159.699 M 108 161 L 108 178 112 178 L 116 178 116 170.500 L 116 163 122.500 163 L 129 163 129 160 L 129 157 122.500 157 L 116 157 116 154.046 C 116 151.094, 116.007 151.091, 122.750 150.796 L 129.500 150.500 129.813 147.250 L 130.127 144 119.063 144 L 108 144 108 161 M 135 161 L 135 178 139 178 L 143 178 143 170.500 L 143 163 149.500 163 L 156 163 156 160 L 156 157 149.500 157 L 143 157 143 154.082 C 143 151.179, 143.035 151.162, 149.750 150.832 C 153.463 150.649, 158.863 150.636, 161.750 150.802 L 167 151.105 167 164.552 L 167 178 171 178 L 175 178 175 164.500 L 175 151 180 151 L 185 151 185 147.500 L 185 144 160 144 L 135 144 135 161 M 205.250 145.031 C 203.512 145.730, 203 146.739, 203 149.468 C 203 153.535, 202.877 153.466, 206.636 151.506 C 210.334 149.577, 213.458 149.600, 215.429 151.571 C 218.632 154.775, 216.646 159.208, 208.597 166.820 C 204.268 170.914, 203 172.780, 203 175.057 L 203 178 215 178 L 227 178 227 175 L 227 172 220.500 172 C 216.925 172, 214 171.590, 214 171.089 C 214 170.588, 215.336 169.054, 216.968 167.680 C 221.997 163.448, 225.003 158.162, 224.968 153.610 C 224.915 146.757, 221.356 143.962, 212.816 144.063 C 209.892 144.098, 206.488 144.534, 205.250 145.031 M 236.308 145.010 C 232.903 146.381, 230.866 150.383, 230.279 156.859 C 229.543 164.975, 230.689 171.527, 233.395 174.672 C 235.200 176.772, 236.785 177.401, 241.187 177.766 C 251.215 178.597, 254.990 174.210, 254.996 161.718 C 255.002 148.939, 251.616 143.943, 243.027 144.063 C 240.537 144.098, 237.514 144.524, 236.308 145.010 M 263.250 145.031 C 261.512 145.730, 261 146.739, 261 149.468 C 261 153.535, 260.877 153.466, 264.636 151.506 C 268.334 149.577, 271.458 149.600, 273.429 151.571 C 276.632 154.775, 274.646 159.208, 266.597 166.820 C 262.268 170.914, 261 172.780, 261 175.057 L 261 178 273 178 L 285 178 285 175 L 285 172 278.500 172 C 274.925 172, 272 171.590, 272 171.089 C 272 170.588, 273.336 169.054, 274.968 167.680 C 279.997 163.448, 283.003 158.162, 282.968 153.610 C 282.915 146.757, 279.356 143.962, 270.816 144.063 C 267.892 144.098, 264.488 144.534, 263.250 145.031 M 295.250 153.900 C 289.882 161.178, 288 164.544, 288 166.865 L 288 170 295.500 170 L 303 170 303 174 L 303 178 307 178 L 311 178 311 174 C 311 170.667, 311.333 170, 313 170 C 314.556 170, 315 169.333, 315 167 C 315 164.667, 314.556 164, 313 164 C 311.133 164, 311 163.333, 311 154 L 311 144 306.750 144.035 C 302.541 144.070, 302.430 144.166, 295.250 153.900 M 239.098 153.149 C 237.627 157.368, 237.731 165.910, 239.290 168.991 C 240.863 172.101, 243.949 172.790, 245.684 170.418 C 247.271 168.247, 247.476 154.758, 245.965 151.934 C 244.271 148.769, 240.385 149.457, 239.098 153.149 M 298.193 158.529 C 296.437 161.020, 295 163.270, 295 163.529 C 295 163.788, 296.800 164, 299 164 L 303 164 303 159 C 303 156.250, 302.637 154, 302.193 154 C 301.748 154, 299.948 156.038, 298.193 158.529 M 86.097 158.150 C 84.206 163.576, 84.624 165, 88.107 165 C 90.657 165, 91.093 164.686, 90.537 163.250 C 90.165 162.287, 89.608 160.253, 89.301 158.729 C 88.496 154.742, 87.357 154.536, 86.097 158.150 M 24.124 193.457 C 24.376 193.709, 36.020 195.078, 50 196.500 C 78.446 199.393, 83.086 200.213, 87.070 203.050 C 92.752 207.095, 94.273 216.704, 90.414 224.166 C 87.612 229.586, 88.516 232.932, 94.205 238.190 C 97.068 240.835, 100.105 243, 100.955 242.999 C 101.805 242.999, 104.975 242.055, 108 240.902 C 121.086 235.913, 129.280 241.092, 132.944 256.667 C 134.350 262.644, 135.960 264.380, 141.500 265.895 C 148.422 267.788, 150.463 267.337, 154.327 263.060 C 158.673 258.249, 159.401 254.777, 158.778 241.831 C 158.209 230.026, 157.543 229.028, 148.326 226.171 C 134.331 221.833, 122.099 212.470, 113.154 199.250 L 108.925 193 66.296 193 C 42.850 193, 23.872 193.206, 24.124 193.457 M 137.248 193.806 C 131.662 194.634, 132.418 202.526, 138.604 207.957 C 140.520 209.639, 144.780 212.375, 148.073 214.037 C 151.365 215.699, 155.811 218.641, 157.951 220.575 C 163.787 225.847, 165.004 230.586, 164.978 247.928 C 164.954 264.031, 164.191 266.852, 157.868 274.240 C 153.466 279.383, 152.738 286.920, 156.161 291.908 C 162.569 301.244, 173.843 302.824, 181.244 295.422 C 187.749 288.918, 187.970 280.962, 181.856 273.370 C 175.953 266.040, 175.046 262.781, 175.022 248.799 C 174.983 226.551, 176.823 222.891, 192.631 213.773 C 204.669 206.830, 209.369 200.291, 206.069 195.078 C 204.658 192.848, 196.151 193.533, 186.795 196.629 C 175.813 200.263, 165.586 200.400, 155 197.054 C 146.616 194.405, 140.613 193.306, 137.248 193.806 M 227.058 199.411 C 219.154 211.542, 207.146 220.908, 193.500 225.583 C 181.639 229.647, 182 229.066, 182 244.090 C 182 258.212, 182.451 260.188, 186.629 264.360 C 189.195 266.922, 189.982 267.162, 194.193 266.664 C 202.874 265.635, 208 260.931, 208 253.992 C 208 251.146, 211.285 244.986, 214.304 242.168 C 217.967 238.750, 223.499 238.369, 231.866 240.958 C 235.762 242.164, 239.845 242.867, 240.939 242.519 C 242.033 242.172, 244.745 239.825, 246.964 237.303 C 251.262 232.420, 252.182 228.077, 249.844 223.708 C 244.669 214.039, 249.287 202.980, 259.723 200.048 C 261.800 199.464, 271.150 198.319, 280.500 197.504 C 299.759 195.824, 316 193.936, 316 193.377 C 316 193.169, 296.928 193, 273.617 193 L 231.235 193 227.058 199.411" stroke="none" fill="#dbebf3" fill-rule="evenodd"/></svg>